<svg version="1.1" id="Layer_1" xmlns="http://www.w3.org/2000/svg" xmlns:xlink="http://www.w3.org/1999/xlink" x="0px" y="0px"
	 width="100%" viewBox="0 0 491 617" enable-background="new 0 0 491 617" xml:space="preserve">
<path fill="#000000" opacity="1.000000" stroke="none" 
	d="
M430.000000,1.000008 
	C450.592285,1.000000 471.184570,1.000000 492.000000,1.000000 
	C492.000000,20.686998 492.000000,40.374840 491.688293,60.869442 
	C490.918365,60.693802 490.272949,59.755287 490.030701,58.722244 
	C487.452332,47.726742 483.042023,37.650654 475.358521,29.026184 
	C475.176086,28.745840 475.025238,28.637568 474.639221,28.278358 
	C471.980377,25.632120 469.522705,23.284143 466.989105,20.691841 
	C466.629028,20.276201 466.344879,20.104887 465.933899,19.626549 
	C464.079010,17.972017 462.350952,16.624512 460.405029,15.022980 
	C458.814056,14.153811 457.440918,13.538668 455.923035,12.600052 
	C454.133087,11.306623 452.594849,10.017155 450.823456,9.424473 
	C444.622406,7.349683 439.122375,3.290643 432.296356,2.917014 
	C431.498291,2.873332 430.763885,1.667229 430.000000,1.000008 
z"/>
<path fill="#000000" opacity="1.000000" stroke="none" 
	d="
M1.000000,59.000000 
	C1.000000,39.738621 1.000000,20.477243 1.000000,1.000000 
	C20.687035,1.000000 40.374859,1.000000 60.861797,1.309591 
	C57.440239,3.134906 53.219563,4.650631 48.646645,6.195498 
	C45.508106,7.788996 42.721821,9.353354 39.573509,10.961784 
	C31.879908,14.700734 25.911385,19.966255 20.325209,25.995203 
	C11.826218,35.167843 6.175436,45.675808 2.913147,57.632004 
	C2.753162,58.218353 1.659104,58.549839 1.000000,59.000000 
z"/>
<path fill="#000000" opacity="1.000000" stroke="none" 
	d="
M492.000000,558.000000 
	C492.000000,577.926208 492.000000,597.852356 492.000000,618.000000 
	C472.646332,618.000000 453.291840,618.000000 433.133331,617.699890 
	C437.222717,615.534973 442.116089,613.670166 447.360962,611.769165 
	C451.833710,609.174927 455.954926,606.616943 460.420837,604.028992 
	C462.551483,602.337830 464.337341,600.676575 466.346069,598.954956 
	C466.854889,598.716309 467.004059,598.458862 467.378479,598.074951 
	C468.202118,597.357910 468.663635,596.688171 469.347717,595.958252 
	C469.857605,595.720703 470.004913,595.463196 470.265808,595.055115 
	C470.684875,594.926025 470.850311,594.867432 471.263062,594.851990 
	C471.688782,594.626282 471.867249,594.357361 472.368347,593.963135 
	C474.155121,591.570801 475.619202,589.303833 477.051117,587.025879 
	C477.018921,587.014954 477.039673,587.079651 477.318329,586.987915 
	C478.076721,586.299866 478.556458,585.703552 479.288910,585.018799 
	C479.638184,584.622314 479.734741,584.314331 479.969910,583.701782 
	C480.433319,582.609009 480.758148,581.820801 481.050781,581.023071 
	C481.018555,581.013611 481.039703,581.077393 481.286560,581.007690 
	C481.702240,580.654846 481.871063,580.371643 482.285034,580.003906 
	C482.626556,579.620605 482.722870,579.321777 482.954956,578.720825 
	C483.410431,577.642395 483.730103,576.866211 484.293365,576.006958 
	C484.633270,575.627808 484.729614,575.331604 484.957458,574.730652 
	C485.404175,573.647827 485.719330,572.869690 486.283203,572.003357 
	C486.628815,571.611145 486.725769,571.307129 486.910339,570.620361 
	C488.009674,566.592773 488.955872,562.927185 490.099182,559.324097 
	C490.284393,558.740479 491.344360,558.434387 492.000000,558.000000 
z"/>
<path fill="#000000" opacity="1.000000" stroke="none" 
	d="
M59.000000,618.000000 
	C39.741158,618.000000 20.482317,618.000000 1.000000,618.000000 
	C1.000000,599.646362 1.000000,581.291870 1.282162,562.122925 
	C4.381084,567.581970 6.639468,574.193420 10.173961,580.032410 
	C13.607377,585.704346 18.349749,590.583862 22.528423,595.800659 
	C22.539526,595.789917 22.549013,595.818298 22.726614,596.077148 
	C25.589172,598.585571 28.274130,600.835083 30.970125,603.055176 
	C30.981163,603.025818 30.924484,603.053284 31.055092,603.374634 
	C38.565548,610.102600 47.562733,613.149475 56.648258,616.052673 
	C57.547768,616.340027 58.221485,617.333984 59.000000,618.000000 
z"/>
<path fill="#FDAE10" opacity="1.000000" stroke="none" 
	d="
M492.000000,557.531372 
	C491.344360,558.434387 490.284393,558.740479 490.099182,559.324097 
	C488.955872,562.927185 488.009674,566.592773 486.704742,570.619019 
	C486.411560,571.000366 486.000275,571.000549 486.000122,571.000244 
	C486.000000,571.000000 485.998779,571.000000 485.998657,570.586060 
	C486.206146,568.696533 486.414429,567.221191 486.621155,565.745544 
	C487.743561,557.733887 489.834747,549.723389 489.844604,541.710327 
	C490.039978,383.140381 489.994293,224.570160 490.331390,65.989243 
	C491.110138,65.985672 491.555084,65.992836 492.000000,66.000000 
	C492.000000,139.687561 492.000000,213.375122 491.792542,287.739563 
	C491.723358,289.277618 491.861664,290.138794 492.000000,291.000000 
	C492.000000,313.687561 492.000000,336.375122 491.802490,359.747925 
	C491.736633,361.288788 491.868286,362.144379 492.000000,363.000000 
	C492.000000,366.692902 492.000000,370.385834 491.778809,374.776245 
	C491.705048,376.649200 491.852539,377.824585 492.000000,379.000000 
	C492.000000,379.750000 492.000000,380.500000 491.760620,381.935638 
	C491.680847,385.414185 491.840424,388.207092 492.000000,391.000000 
	C492.000000,446.354218 492.000000,501.708466 492.000000,557.531372 
z"/>
<path fill="#FEB312" opacity="1.000000" stroke="none" 
	d="
M48.998890,6.166357 
	C53.219563,4.650631 57.440239,3.134906 61.330456,1.309591 
	C63.370556,1.000000 65.741112,1.000000 68.892578,1.241112 
	C71.480591,1.653727 73.287666,1.974976 75.094810,1.975340 
	C189.477005,1.998425 303.859192,2.000244 418.241364,1.953336 
	C420.161041,1.952549 422.080475,1.331573 424.000000,1.000001 
	C425.714355,1.000000 427.428711,1.000000 429.571533,1.000008 
	C430.763885,1.667229 431.498291,2.873332 432.296356,2.917014 
	C439.122375,3.290643 444.622406,7.349683 450.823456,9.424473 
	C452.594849,10.017155 454.133087,11.306623 455.875610,12.665640 
	C455.972931,13.054701 455.878632,13.186281 455.515442,13.120697 
	C453.606445,12.454673 452.014465,11.950830 450.522247,11.238167 
	C440.486237,6.445080 430.072296,3.896962 418.799347,3.910491 
	C304.144928,4.048093 189.490280,4.015786 74.835739,3.954907 
	C65.968071,3.950199 57.203434,4.033214 48.998055,7.690285 
	C48.998604,6.979118 48.998745,6.572737 48.998890,6.166357 
z"/>
<path fill="#FEB013" opacity="1.000000" stroke="none" 
	d="
M22.517326,595.811401 
	C18.349749,590.583862 13.607377,585.704346 10.173961,580.032410 
	C6.639468,574.193420 4.381084,567.581970 1.282162,561.654297 
	C1.000000,394.645782 1.000000,227.291550 1.000000,59.468658 
	C1.659104,58.549839 2.753162,58.218353 2.913147,57.632004 
	C6.175436,45.675808 11.826218,35.167843 20.325209,25.995203 
	C25.911385,19.966255 31.879908,14.700734 39.622463,11.032671 
	C40.033443,11.059485 40.131104,11.201432 39.919266,11.453730 
	C34.679504,15.778828 29.241776,19.442932 24.698265,23.998829 
	C9.271975,39.467163 2.027480,58.448704 2.023736,80.189606 
	C1.997119,234.744064 1.925788,389.298706 2.234517,543.852539 
	C2.251997,552.603210 4.329881,561.809753 7.568437,569.962036 
	C10.679726,577.794006 16.588406,584.505066 21.162291,591.775085 
	C21.896799,592.942627 22.079538,594.457214 22.517326,595.811401 
z"/>
<path fill="#FFAD0C" opacity="1.000000" stroke="none" 
	d="
M447.009430,611.805359 
	C442.116089,613.670166 437.222717,615.534973 432.664673,617.699890 
	C430.958344,618.000000 428.916656,618.000000 426.104431,617.752930 
	C422.192230,617.335632 419.050629,617.017273 415.908966,617.016418 
	C300.608551,616.986328 185.308105,616.985657 70.008698,616.665527 
	C70.014069,615.929443 70.018433,615.508728 70.463715,615.070068 
	C78.706360,615.361572 86.507652,615.925842 94.309853,615.938721 
	C142.259903,616.018066 190.210434,616.068542 238.160202,615.926941 
	C260.597931,615.860718 283.033966,615.140320 305.471466,615.098328 
	C321.882172,615.067627 338.293060,615.793762 354.705841,615.916687 
	C362.466797,615.974854 370.233429,615.156006 377.995636,615.187622 
	C389.409760,615.234131 400.822021,615.694763 412.235718,615.950500 
	C413.226532,615.972656 414.230011,615.834351 415.214172,615.682983 
	C424.867462,614.198059 434.513947,612.667603 444.175751,611.240967 
	C445.072968,611.108521 446.062683,611.602356 447.009430,611.805359 
z"/>
<path fill="#FBBF24" opacity="1.000000" stroke="none" 
	d="
M70.007675,616.980957 
	C185.308105,616.985657 300.608551,616.986328 415.908966,617.016418 
	C419.050629,617.017273 422.192230,617.335632 425.666931,617.752930 
	C305.979095,618.000000 185.958206,618.000000 65.757004,617.768311 
	C67.053688,617.351379 68.530678,617.166138 70.007675,616.980957 
z"/>
<path fill="#FCC228" opacity="1.000000" stroke="none" 
	d="
M423.531342,1.000001 
	C422.080475,1.331573 420.161041,1.952549 418.241364,1.953336 
	C303.859192,2.000244 189.477005,1.998425 75.094810,1.975340 
	C73.287666,1.974976 71.480591,1.653727 69.336746,1.241112 
	C187.020889,1.000000 305.041779,1.000000 423.531342,1.000001 
z"/>
<path fill="#FEB013" opacity="1.000000" stroke="none" 
	d="
M70.008690,616.665527 
	C68.530678,617.166138 67.053688,617.351379 65.288345,617.768311 
	C63.285641,618.000000 61.571285,618.000000 59.428463,618.000000 
	C58.221485,617.333984 57.547768,616.340027 56.648258,616.052673 
	C47.562733,613.149475 38.565548,610.102600 31.427618,603.375366 
	C33.155945,603.711304 34.680988,604.292969 36.122646,605.036377 
	C46.788368,610.536621 57.460888,615.990295 70.022789,615.088013 
	C70.018433,615.508728 70.014069,615.929443 70.008690,616.665527 
z"/>
<path fill="#FEB312" opacity="1.000000" stroke="none" 
	d="
M492.000000,65.583336 
	C491.555084,65.992836 491.110138,65.985672 490.107880,65.678238 
	C487.612366,58.750988 486.160706,51.927517 483.587646,45.556961 
	C481.386230,40.106438 477.899200,35.175159 475.100952,29.803205 
	C475.221161,29.592182 475.424103,29.150927 475.424103,29.150927 
	C483.042023,37.650654 487.452332,47.726742 490.030701,58.722244 
	C490.272949,59.755287 490.918365,60.693802 491.688293,61.338100 
	C492.000000,62.388889 492.000000,63.777782 492.000000,65.583336 
z"/>
<path fill="#FCC228" opacity="1.000000" stroke="none" 
	d="
M492.000000,390.550018 
	C491.840424,388.207092 491.680847,385.414185 491.760620,382.310638 
	C492.000000,384.700012 492.000000,387.400024 492.000000,390.550018 
z"/>
<path fill="#FCC228" opacity="1.000000" stroke="none" 
	d="
M492.000000,378.600006 
	C491.852539,377.824585 491.705048,376.649200 491.778809,375.236877 
	C492.000000,376.066681 492.000000,377.133331 492.000000,378.600006 
z"/>
<path fill="#FCC228" opacity="1.000000" stroke="none" 
	d="
M492.000000,290.625000 
	C491.861664,290.138794 491.723358,289.277618 491.792542,288.208191 
	C492.000000,288.750000 492.000000,289.500000 492.000000,290.625000 
z"/>
<path fill="#FFC929" opacity="1.000000" stroke="none" 
	d="
M492.000000,362.625000 
	C491.868286,362.144379 491.736633,361.288788 491.802490,360.216583 
	C492.000000,360.750000 492.000000,361.500000 492.000000,362.625000 
z"/>
<path fill="#FEB312" opacity="1.000000" stroke="none" 
	d="
M467.065063,20.936169 
	C469.522705,23.284143 471.980377,25.632120 474.421265,28.378450 
	C474.404480,28.776806 473.986877,29.012854 473.702393,28.841908 
	C471.223572,26.153067 469.029297,23.635172 466.893860,21.073708 
	C466.952698,21.030138 467.065063,20.936169 467.065063,20.936169 
z"/>
<path fill="#FEB312" opacity="1.000000" stroke="none" 
	d="
M460.622894,15.277000 
	C462.350952,16.624512 464.079010,17.972017 465.885132,19.690624 
	C465.963165,20.061728 465.873016,20.195225 465.532288,20.130304 
	C463.456879,18.715845 461.722168,17.366306 460.148315,15.833527 
	C460.309143,15.650284 460.622894,15.276995 460.622894,15.277000 
z"/>
<path fill="#FEB312" opacity="1.000000" stroke="none" 
	d="
M456.020355,12.989113 
	C457.440918,13.538668 458.814056,14.153811 460.405029,15.022974 
	C460.622894,15.276995 460.309143,15.650284 459.831757,15.773135 
	C458.195801,14.992744 457.037231,14.089501 455.878662,13.186270 
	C455.878632,13.186281 455.972931,13.054701 456.020355,12.989113 
z"/>
<path fill="#FEB312" opacity="1.000000" stroke="none" 
	d="
M466.011963,19.997650 
	C466.344879,20.104887 466.629028,20.276201 466.989105,20.691841 
	C467.065063,20.936169 466.952698,21.030138 466.722839,20.931396 
	C466.273010,20.633121 466.066345,20.420645 465.873016,20.195225 
	C465.873016,20.195225 465.963165,20.061728 466.011963,19.997650 
z"/>
<path fill="#FEB312" opacity="1.000000" stroke="none" 
	d="
M474.622437,28.676714 
	C475.025238,28.637568 475.176086,28.745840 475.358521,29.026184 
	C475.424103,29.150927 475.221161,29.592182 474.908478,29.664543 
	C474.353210,29.528883 474.150238,29.287533 473.986877,29.012854 
	C473.986877,29.012854 474.404480,28.776806 474.622437,28.676714 
z"/>
<path fill="#FEB013" opacity="1.000000" stroke="none" 
	d="
M48.646645,6.195498 
	C48.998745,6.572737 48.998604,6.979118 48.649628,7.767934 
	C45.577568,9.167391 42.854336,10.184412 40.131104,11.201432 
	C40.131104,11.201432 40.033443,11.059485 39.984489,10.988600 
	C42.721821,9.353354 45.508106,7.788996 48.646645,6.195498 
z"/>
<path fill="#FFC225" opacity="1.000000" stroke="none" 
	d="
M39.919266,11.453730 
	C42.854336,10.184412 45.577568,9.167391 48.649223,8.072721 
	C57.203434,4.033214 65.968071,3.950199 74.835739,3.954907 
	C189.490280,4.015786 304.144928,4.048093 418.799347,3.910491 
	C430.072296,3.896962 440.486237,6.445080 450.522247,11.238167 
	C452.014465,11.950830 453.606445,12.454673 455.515442,13.120686 
	C457.037231,14.089501 458.195801,14.992744 459.670929,15.956378 
	C461.722168,17.366306 463.456879,18.715845 465.532288,20.130304 
	C466.066345,20.420645 466.273010,20.633121 466.664001,20.974968 
	C469.029297,23.635172 471.223572,26.153067 473.702393,28.841908 
	C474.150238,29.287533 474.353210,29.528883 474.788269,29.875568 
	C477.899200,35.175159 481.386230,40.106438 483.587646,45.556961 
	C486.160706,51.927517 487.612366,58.750988 489.774048,65.688980 
	C489.994293,224.570160 490.039978,383.140381 489.844604,541.710327 
	C489.834747,549.723389 487.743561,557.733887 486.621155,565.745544 
	C486.414429,567.221191 486.206146,568.696533 485.747101,570.811157 
	C484.010315,574.659241 482.525024,577.868347 481.039734,581.077393 
	C481.039703,581.077393 481.018555,581.013611 480.725464,581.107605 
	C479.951447,582.131897 479.470551,583.062195 478.714783,584.158936 
	C477.973175,585.243469 477.506439,586.161560 477.039673,587.079651 
	C477.039673,587.079651 477.018921,587.014954 476.699036,587.077332 
	C474.934662,589.455994 473.490173,591.772217 472.045685,594.088440 
	C471.867249,594.357361 471.688782,594.626282 471.122681,594.763916 
	C470.361084,594.585815 470.120087,594.750183 470.012115,595.125549 
	C470.004913,595.463196 469.857605,595.720703 469.029724,596.032227 
	C467.998260,596.818359 467.507324,597.470215 467.016388,598.122131 
	C467.004059,598.458862 466.854889,598.716309 465.982513,598.964783 
	C463.622772,600.709717 461.849457,602.384338 460.076111,604.058960 
	C455.954926,606.616943 451.833710,609.174927 447.360962,611.769165 
	C446.062683,611.602356 445.072968,611.108521 444.175751,611.240967 
	C434.513947,612.667603 424.867462,614.198059 415.214172,615.682983 
	C414.230011,615.834351 413.226532,615.972656 412.235718,615.950500 
	C400.822021,615.694763 389.409760,615.234131 377.995636,615.187622 
	C370.233429,615.156006 362.466797,615.974854 354.705841,615.916687 
	C338.293060,615.793762 321.882172,615.067627 305.471466,615.098328 
	C283.033966,615.140320 260.597931,615.860718 238.160202,615.926941 
	C190.210434,616.068542 142.259903,616.018066 94.309853,615.938721 
	C86.507652,615.925842 78.706360,615.361572 70.463715,615.070068 
	C57.460888,615.990295 46.788368,610.536621 36.122646,605.036377 
	C34.680988,604.292969 33.155945,603.711304 31.297009,603.053955 
	C30.924484,603.053284 30.981163,603.025818 30.923576,602.708862 
	C28.726110,599.400513 27.228264,595.596863 22.549013,595.818298 
	C22.549013,595.818298 22.539526,595.789917 22.528427,595.800659 
	C22.079538,594.457214 21.896799,592.942627 21.162291,591.775085 
	C16.588406,584.505066 10.679726,577.794006 7.568437,569.962036 
	C4.329881,561.809753 2.251997,552.603210 2.234517,543.852539 
	C1.925788,389.298706 1.997119,234.744064 2.023736,80.189606 
	C2.027480,58.448704 9.271975,39.467163 24.698265,23.998829 
	C29.241776,19.442932 34.679504,15.778828 39.919266,11.453730 
M119.668037,228.185013 
	C119.668037,228.185013 119.824509,228.516724 119.829086,229.073029 
	C120.261810,229.376450 120.694527,229.679871 121.652603,230.167603 
	C122.105408,230.737564 122.558212,231.307541 123.272293,232.333908 
	C123.543716,232.552231 123.815132,232.770538 124.018829,232.986465 
	C124.018829,232.986465 124.034218,232.920471 124.120026,233.457260 
	C124.760193,233.594482 125.400360,233.731705 126.598244,234.097610 
	C127.094551,234.711655 127.590858,235.325699 127.733490,236.385696 
	C130.176346,238.244965 132.619217,240.104248 135.002930,241.990463 
	C135.002930,241.990463 135.032639,241.932648 135.124329,242.624512 
	C135.636627,243.465469 135.986328,244.486191 136.686478,245.119446 
	C143.394150,251.186417 145.557419,258.841461 145.016296,267.626740 
	C144.240280,280.225647 143.559998,292.832458 143.037750,305.444153 
	C142.769073,311.932098 143.068451,318.442047 142.872223,324.934814 
	C142.314896,343.375916 141.465515,361.809967 141.098358,380.254059 
	C140.976593,386.370697 143.948151,391.327454 149.027451,395.082977 
	C155.198059,399.645416 162.228882,398.772949 169.182556,399.062775 
	C181.054138,399.557556 191.967026,391.886047 191.174164,377.385559 
	C189.622513,349.008331 189.063980,320.577850 187.944824,292.175262 
	C187.664139,285.052063 186.701355,277.958374 186.257706,270.838318 
	C185.681854,261.597107 187.009323,252.949402 194.254715,246.138824 
	C196.121307,244.384247 197.409943,242.014801 198.991791,239.987839 
	C198.991791,239.987839 198.929428,239.965942 199.469299,239.829971 
	C199.707962,239.387833 199.946625,238.945694 200.272934,238.228409 
	C200.272934,238.228409 200.554550,238.164520 201.236588,238.432373 
	C206.112320,236.702423 210.019577,233.882645 212.237091,228.274567 
	C214.452530,226.179688 216.667969,224.084808 219.584915,221.884308 
	C220.971741,220.546707 222.598557,219.381836 223.706009,217.843155 
	C230.345215,208.618759 233.363724,198.039169 234.973923,186.024094 
	C234.985092,156.770248 235.013733,127.516365 234.963913,98.262619 
	C234.960938,96.510338 234.330887,94.759125 233.999069,92.228462 
	C233.055328,90.817429 232.111588,89.406403 231.035660,87.569664 
	C231.035660,87.569664 230.987762,87.126488 230.967209,86.371429 
	C229.909790,81.458435 225.895111,80.440857 221.903183,80.094833 
	C216.027512,79.585533 209.521072,79.418610 206.517075,85.579544 
	C204.593643,89.524330 204.772552,94.494179 203.994812,99.941170 
	C203.993134,110.261650 204.272186,120.591621 203.923874,130.900391 
	C203.403656,146.297134 205.844360,161.822922 202.026794,177.013321 
	C202.026794,177.013321 202.096756,177.010330 201.638107,177.264694 
	C201.427673,177.539856 201.217239,177.815033 201.013245,178.019485 
	C201.013245,178.019485 201.083710,178.028259 200.388672,178.109726 
	C199.289841,179.101013 198.191010,180.092316 197.005600,180.999939 
	C197.005600,180.999939 197.085861,181.088226 196.457581,180.978653 
	C195.285614,181.259460 194.113663,181.540268 192.417618,182.064392 
	C191.906235,182.073456 191.394867,182.082520 190.780869,181.497925 
	C189.491623,181.361984 188.202377,181.226044 186.998169,181.000000 
	C186.998169,181.000000 186.910583,181.089188 186.805969,180.492249 
	C186.211014,180.032822 185.616058,179.573395 184.608932,178.657684 
	C184.043518,178.452621 183.478104,178.247559 182.978806,178.022415 
	C182.978806,178.022415 182.958252,178.088394 182.862885,177.319077 
	C181.913651,170.789032 180.302261,164.274857 180.145432,157.725845 
	C179.752380,141.311966 180.019043,124.882294 180.018707,108.458961 
	C180.018616,103.964981 180.051254,99.469849 179.925690,94.979248 
	C179.915909,94.629623 178.771622,94.311722 178.005569,93.242424 
	C178.059250,92.495674 178.112930,91.748932 178.340454,90.741737 
	C178.397476,90.389168 178.248947,90.158241 177.962387,90.024452 
	C177.962387,90.024452 177.944656,90.094093 177.967194,89.304306 
	C177.169296,83.987579 173.523560,80.077774 168.210510,80.189804 
	C164.769257,80.262360 160.027740,77.508263 157.773560,83.705841 
	C156.557983,84.472115 155.342422,85.238388 153.458984,86.166191 
	C152.969513,87.107643 152.480042,88.049095 151.269882,89.296707 
	C150.844177,91.154503 150.054672,93.010971 150.047928,94.870285 
	C149.962326,118.488609 149.971359,142.107391 150.023224,165.725906 
	C150.027115,167.503693 150.540390,169.280380 150.964020,171.743927 
	C150.661377,172.527084 150.358734,173.310226 149.808578,173.883240 
	C149.815491,174.259247 149.822403,174.635239 149.925049,175.503265 
	C149.657166,175.678177 149.389282,175.853104 148.667007,176.284882 
	C148.448471,176.552841 148.229935,176.820801 148.014236,177.020370 
	C148.014236,177.020370 148.081238,177.034195 147.345322,177.146622 
	C146.456589,177.592606 145.567413,178.037766 144.679153,178.484726 
	C137.282684,182.206665 126.753738,179.112854 126.923714,168.387451 
	C126.988815,164.280106 126.945366,160.170975 126.946518,156.062668 
	C126.951912,136.734177 127.178764,117.400902 126.763710,98.081421 
	C126.684692,94.403419 127.701813,89.483315 122.971474,86.262955 
	C119.865402,79.673065 109.538521,77.368385 102.428856,81.952209 
	C101.134094,82.786980 100.678757,84.923744 99.756706,86.740990 
	C99.756706,86.740990 99.477623,86.828400 98.786926,86.744789 
	C97.522156,89.950844 95.200073,93.143906 95.160477,96.365013 
	C94.853355,121.350471 95.019661,146.341415 94.969170,171.330521 
	C94.945679,182.956116 96.992775,194.224518 101.303757,204.956848 
	C102.771873,208.611771 105.779106,211.648468 108.019249,214.987885 
	C108.019249,214.987885 108.039352,214.924011 108.042656,215.652832 
	C109.059219,216.754532 110.075790,217.856216 111.026421,218.980301 
	C111.026421,218.980301 111.045403,218.913315 111.055511,219.641449 
	C112.062813,220.750015 113.070122,221.858566 114.011909,222.982422 
	C114.011909,222.982422 114.010750,222.915146 114.290009,223.360992 
	C114.568108,223.569855 114.846199,223.778702 115.569702,224.103439 
	C115.855980,224.280197 116.004272,224.536713 116.282288,225.326797 
	C116.555161,225.544479 116.828033,225.762146 117.030945,225.979645 
	C117.030945,225.979645 117.039749,225.910233 117.181198,226.446381 
	C117.618057,226.691040 118.054924,226.935699 118.815086,227.332413 
	C118.815086,227.332413 118.891220,227.681473 118.842117,227.954895 
	C118.842117,227.954895 119.037643,228.150070 119.037643,228.150070 
	C119.037643,228.150070 119.310448,228.103592 119.668037,228.185013 
M320.737885,279.236603 
	C320.737885,279.236603 320.830566,279.518250 320.779785,280.195129 
	C321.672058,280.518402 322.564301,280.841675 323.738831,281.242523 
	C323.738831,281.242523 323.825745,281.522064 323.719971,282.193207 
	C326.335632,284.369629 328.865234,286.660828 331.584808,288.698578 
	C337.260376,292.951294 341.857025,298.068237 341.876434,305.467560 
	C341.904297,316.073425 341.271210,326.682648 340.851074,337.287689 
	C340.267120,352.026733 339.401184,366.759338 339.136841,381.503296 
	C339.061829,385.685699 340.301758,390.107605 345.568665,392.098511 
	C345.861206,392.278107 346.010651,392.539520 346.137299,393.592682 
	C347.468384,394.744843 348.616272,396.368988 350.161713,396.968872 
	C357.515686,399.823578 365.193146,400.107941 372.625183,397.756165 
	C375.406769,396.875946 377.536621,393.936127 379.991943,391.993317 
	C379.991943,391.993317 379.928223,391.983398 380.361053,391.717957 
	C380.568481,391.453400 380.775879,391.188812 380.991730,390.989258 
	C380.991730,390.989258 380.930542,390.965759 381.590363,390.791779 
	C382.045502,389.834534 382.500671,388.877289 382.968719,387.988708 
	C382.968719,387.988708 382.899536,387.979095 383.540039,387.601349 
	C384.362762,384.649139 385.902802,381.693542 385.888885,378.745270 
	C385.812958,362.641022 385.353271,346.538574 385.028900,330.435455 
	C384.690613,313.641357 384.338348,296.847565 384.024628,280.053009 
	C383.670502,261.094513 383.127411,242.136063 383.064056,223.176270 
	C382.915466,178.704926 383.004181,134.232788 382.995819,89.760971 
	C382.995575,88.428520 383.413574,86.877129 382.873260,85.816757 
	C382.128784,84.355682 380.765656,82.318306 379.477997,82.169693 
	C370.879730,81.177269 362.518555,82.518753 354.763275,86.428970 
	C352.884583,87.376213 351.596436,89.494629 350.005554,91.011215 
	C350.005554,91.011215 350.069153,91.041733 349.334656,91.042450 
	C343.891174,93.675209 338.638153,96.502686 337.010590,103.004807 
	C337.010590,103.004807 337.073395,103.036789 336.366760,103.139610 
	C335.258423,104.781639 334.150055,106.423668 333.010498,108.004143 
	C333.010498,108.004143 333.073395,108.032616 332.440033,108.233398 
	C332.234711,108.975380 332.029388,109.717361 331.756561,110.731438 
	C331.756561,110.731438 331.487946,110.811577 330.821381,110.720825 
	C328.150940,114.626686 324.865540,118.249649 322.915985,122.487183 
	C314.280029,141.258224 310.294586,161.268356 309.141388,181.743591 
	C308.189331,198.647293 308.370331,215.613373 307.953583,232.549454 
	C307.806793,238.513885 307.140259,244.471344 307.140900,250.431946 
	C307.141602,256.551575 307.147278,262.755157 308.117615,268.765900 
	C308.998627,274.223267 312.997681,277.149719 317.744171,277.235382 
	C317.744171,277.235382 317.841949,277.527100 317.787781,278.199860 
	C318.675873,278.519165 319.563934,278.838440 320.737885,279.236603 
M383.890198,438.478577 
	C382.600647,438.316681 381.311157,438.013367 380.021576,438.013031 
	C290.876526,437.990631 201.731461,437.991821 112.586395,438.001373 
	C111.566177,438.001465 110.545967,438.136780 109.525749,438.208984 
	C109.542137,438.388611 109.558517,438.568268 109.574905,438.747894 
	C110.053680,438.846344 110.532448,438.944824 111.006454,439.436829 
	C111.006454,439.436829 111.003265,439.830383 110.182091,439.977142 
	C101.974976,439.871307 93.716240,446.524323 94.959915,456.710602 
	C95.863129,464.108307 101.046371,467.363525 106.654793,470.084351 
	C106.546928,470.190460 106.373680,470.283722 106.349579,470.406281 
	C106.325432,470.529053 106.443222,470.798828 106.510803,470.802856 
	C107.713478,470.874512 108.917976,470.915466 110.505081,471.002869 
	C110.505081,471.002869 110.887299,470.956177 111.445595,470.992737 
	C111.632095,470.993500 111.818588,470.994232 112.676842,471.478058 
	C114.816628,471.651398 116.956375,471.975739 119.096214,471.976349 
	C205.167557,472.001038 291.238892,471.996979 377.310242,471.992004 
	C379.140839,471.991913 381.159943,472.427124 382.763397,471.809021 
	C386.275208,470.455322 389.576233,468.554810 393.184845,466.321655 
	C394.074554,465.544800 394.964294,464.767975 396.169678,463.863342 
	C396.236786,463.773041 396.369812,463.673096 396.358276,463.594299 
	C396.327301,463.382812 396.234467,463.180420 396.279297,462.243835 
	C402.721924,452.660675 394.045319,439.452454 383.995483,439.436279 
	C383.995483,439.436279 383.991913,439.037170 383.890198,438.478577 
M337.500000,506.978577 
	C270.050934,506.979248 202.601852,506.940216 135.152908,507.025696 
	C125.578674,507.037842 116.001114,507.569061 106.432869,508.023834 
	C100.132973,508.323273 94.339920,514.373413 94.001404,520.679077 
	C93.617805,527.824524 97.974220,534.234619 104.557487,534.882141 
	C112.757149,535.688477 121.034531,535.860596 129.282852,535.971558 
	C137.227341,536.078430 145.177444,535.666016 153.125320,535.655273 
	C159.535049,535.646667 165.948059,536.085327 172.354340,535.985657 
	C180.983292,535.851440 189.608261,535.105530 198.232925,535.139038 
	C210.245621,535.185730 222.255096,535.784302 234.268555,536.004639 
	C242.001495,536.146545 249.739120,536.033997 257.474640,536.034546 
	C271.508575,536.035583 285.543121,536.113037 299.576263,536.008911 
	C308.672607,535.941345 317.765930,535.505981 326.862427,535.415039 
	C346.728302,535.216309 366.597198,535.251648 386.460693,534.931824 
	C392.816345,534.829529 398.550629,528.432434 398.970581,521.476135 
	C399.275543,516.424561 393.307861,509.161621 387.688751,508.086212 
	C383.531708,507.290558 379.219635,507.072937 374.971954,507.026489 
	C362.815918,506.893463 350.657501,506.978882 337.500000,506.978577 
z"/>
<path fill="#FDAE10" opacity="1.000000" stroke="none" 
	d="
M472.368347,593.963135 
	C473.490173,591.772217 474.934662,589.455994 476.731201,587.088257 
	C475.619202,589.303833 474.155121,591.570801 472.368347,593.963135 
z"/>
<path fill="#FDAE10" opacity="1.000000" stroke="none" 
	d="
M481.286560,581.007690 
	C482.525024,577.868347 484.010315,574.659241 485.747192,571.225098 
	C485.998779,571.000000 486.000000,571.000000 486.005890,571.273071 
	C486.019379,571.728027 486.026947,571.909790 486.034546,572.091553 
	C485.719330,572.869690 485.404175,573.647827 484.800201,574.884399 
	C484.334015,575.577454 484.180145,575.826477 484.049805,576.089966 
	C483.730103,576.866211 483.410431,577.642395 482.797607,578.876953 
	C482.326538,579.572144 482.171692,579.823181 482.039886,580.088501 
	C481.871063,580.371643 481.702240,580.654846 481.286560,581.007690 
z"/>
<path fill="#FDAE10" opacity="1.000000" stroke="none" 
	d="
M460.420837,604.028992 
	C461.849457,602.384338 463.622772,600.709717 465.759674,599.025269 
	C464.337341,600.676575 462.551483,602.337830 460.420837,604.028992 
z"/>
<path fill="#FDAE10" opacity="1.000000" stroke="none" 
	d="
M478.989655,583.992493 
	C479.470551,583.062195 479.951447,582.131897 480.757660,581.117065 
	C480.758148,581.820801 480.433319,582.609009 479.762695,583.699219 
	C479.416901,584.001221 479.002136,584.001953 479.000671,584.000671 
	C478.999176,583.999390 478.989655,583.992493 478.989655,583.992493 
z"/>
<path fill="#FDAE10" opacity="1.000000" stroke="none" 
	d="
M477.318329,586.987915 
	C477.506439,586.161560 477.973175,585.243469 478.714783,584.158936 
	C478.989655,583.992493 478.999176,583.999390 479.005585,584.277039 
	C479.020050,584.738831 479.028107,584.923035 479.036194,585.107239 
	C478.556458,585.703552 478.076721,586.299866 477.318329,586.987915 
z"/>
<path fill="#FDAE10" opacity="1.000000" stroke="none" 
	d="
M467.378479,598.074951 
	C467.507324,597.470215 467.998260,596.818359 468.807190,596.092407 
	C468.663635,596.688171 468.202118,597.357910 467.378479,598.074951 
z"/>
<path fill="#FDAE10" opacity="1.000000" stroke="none" 
	d="
M470.265808,595.055115 
	C470.120087,594.750183 470.361084,594.585815 470.875427,594.720703 
	C470.850311,594.867432 470.684875,594.926025 470.265808,595.055115 
z"/>
<path fill="#FFC225" opacity="1.000000" stroke="none" 
	d="
M479.288879,585.018799 
	C479.028107,584.923035 479.020050,584.738831 479.007080,584.278320 
	C479.002136,584.001953 479.416901,584.001221 479.624115,584.003784 
	C479.734741,584.314331 479.638184,584.622314 479.288879,585.018799 
z"/>
<path fill="#FFC225" opacity="1.000000" stroke="none" 
	d="
M482.285095,580.003906 
	C482.171692,579.823181 482.326538,579.572144 482.661804,579.179199 
	C482.722870,579.321777 482.626556,579.620605 482.285095,580.003906 
z"/>
<path fill="#FFC225" opacity="1.000000" stroke="none" 
	d="
M484.293365,576.006958 
	C484.180145,575.826477 484.334015,575.577454 484.668701,575.189087 
	C484.729614,575.331604 484.633270,575.627808 484.293365,576.006958 
z"/>
<path fill="#FFC225" opacity="1.000000" stroke="none" 
	d="
M486.283203,572.003357 
	C486.026947,571.909790 486.019379,571.728027 486.006042,571.273376 
	C486.000275,571.000549 486.411560,571.000366 486.617157,571.001709 
	C486.725769,571.307129 486.628815,571.611145 486.283203,572.003357 
z"/>
<path fill="#FEB013" opacity="1.000000" stroke="none" 
	d="
M22.726614,596.077148 
	C27.228264,595.596863 28.726110,599.400513 30.912537,602.738281 
	C28.274130,600.835083 25.589172,598.585571 22.726614,596.077148 
z"/>
<path fill="#000000" opacity="1.000000" stroke="none" 
	d="
M116.014572,224.872986 
	C116.004272,224.536713 115.855980,224.280197 115.252289,223.784790 
	C114.626839,223.282486 114.318794,223.098816 114.010757,222.915131 
	C114.010750,222.915146 114.011909,222.982422 114.009583,222.637146 
	C113.019974,221.165695 112.032692,220.039505 111.045410,218.913315 
	C111.045403,218.913315 111.026421,218.980301 111.014847,218.634491 
	C110.015305,217.167114 109.027328,216.045563 108.039352,214.924011 
	C108.039352,214.924011 108.019249,214.987885 108.011475,214.608856 
	C100.805000,202.857986 98.533638,190.008575 96.904182,176.523407 
	C96.924355,148.722946 96.875984,121.386307 96.905746,93.684464 
	C97.815125,91.155647 98.646378,88.992020 99.477623,86.828400 
	C99.477623,86.828400 99.756706,86.740990 100.066032,86.408600 
	C105.945190,79.961220 118.311226,80.608948 122.124603,87.273865 
	C122.377876,87.729660 122.667404,87.920204 122.976509,88.463737 
	C123.386375,89.885605 123.776665,90.954491 124.094620,92.372452 
	C124.335861,93.517830 124.649437,94.314125 124.979195,95.561066 
	C124.990952,101.532898 124.984718,107.054092 124.982628,112.575287 
	C124.980637,117.851021 125.089935,123.129539 124.953110,128.401718 
	C124.817970,133.608994 124.435913,138.809875 124.089005,144.360199 
	C124.327065,145.501328 124.638306,146.295822 124.832825,147.423615 
	C124.798729,151.133575 124.881363,154.510208 124.614365,158.072662 
	C124.228683,159.829422 124.192627,161.400360 124.084976,163.324005 
	C124.103760,164.543213 124.141769,165.419022 124.293182,166.274765 
	C125.157356,171.158707 125.051224,176.312759 129.987915,179.640991 
	C135.349091,183.255386 144.834595,183.746078 148.081238,177.034195 
	C148.081238,177.034195 148.014236,177.020370 148.277222,176.975647 
	C148.733932,176.629959 148.927658,176.328979 149.121399,176.028015 
	C149.389282,175.853104 149.657166,175.678177 149.954941,175.032898 
	C149.984833,174.562531 150.056076,174.093384 150.056076,174.093384 
	C150.358734,173.310226 150.661377,172.527084 150.965515,170.974884 
	C151.207870,163.572479 151.677414,156.938004 151.645844,150.305923 
	C151.558182,131.897812 151.262024,113.490700 151.369110,94.934952 
	C151.738388,93.865776 151.786804,92.944839 151.907318,91.709534 
	C151.999695,90.965607 152.019974,90.536064 152.294586,90.020500 
	C152.645172,89.625175 152.741440,89.315857 152.976913,88.698593 
	C153.453033,87.595314 153.789948,86.799995 154.126846,86.004669 
	C155.342422,85.238388 156.557983,84.472115 158.254364,83.358635 
	C159.819244,82.619431 160.903305,82.227425 162.420044,81.907654 
	C164.886185,81.928215 166.919693,81.876541 169.280609,81.971634 
	C171.682556,83.753311 173.757080,85.388214 175.939697,87.276001 
	C176.349060,87.719078 176.650330,87.909286 176.972290,88.410629 
	C177.310196,89.179207 177.627426,89.636650 177.944656,90.094093 
	C177.944656,90.094093 177.962387,90.024452 177.984711,90.278458 
	C178.007050,90.532471 178.166611,91.002182 178.166611,91.002182 
	C178.112930,91.748932 178.059250,92.495674 178.168030,94.024536 
	C178.556931,96.560593 178.977249,98.314178 178.980438,100.068520 
	C179.022644,123.303154 178.873367,146.539642 179.178833,169.770309 
	C179.215500,172.559082 181.640335,175.316467 182.958252,178.088394 
	C182.958252,178.088394 182.978806,178.022415 183.046265,178.320465 
	C183.727432,179.134415 184.341156,179.650314 185.071533,180.441589 
	C185.762329,180.841034 186.336456,180.965103 186.910583,181.089172 
	C186.910583,181.089188 186.998169,181.000000 187.122131,181.373932 
	C188.458542,181.862457 189.671021,181.977020 190.883484,182.091583 
	C191.394867,182.082520 191.906235,182.073456 193.057251,182.024445 
	C194.826553,181.685730 195.956207,181.386978 197.085861,181.088226 
	C197.085861,181.088226 197.005600,180.999939 197.405670,181.006165 
	C198.898376,180.017670 199.991043,179.022964 201.083710,178.028259 
	C201.083710,178.028259 201.013245,178.019485 201.276901,177.976578 
	C201.725952,177.625885 201.911346,177.318100 202.096756,177.010330 
	C202.096756,177.010330 202.026794,177.013321 202.377930,176.902649 
	C203.486938,175.050934 204.813400,173.339935 204.907272,171.563782 
	C205.392563,162.381317 205.562469,153.182190 205.921844,143.643234 
	C206.266220,142.715637 206.772354,142.128510 206.760040,141.552460 
	C206.552704,131.856659 206.310501,122.161224 205.984802,112.468781 
	C205.944992,111.283760 205.380676,110.116371 205.134918,108.612900 
	C205.083099,105.185875 204.955780,102.086761 204.901917,98.578156 
	C206.143967,91.387184 206.471375,84.088760 215.449081,81.908249 
	C218.244217,81.930275 220.601715,81.881302 223.285767,81.978889 
	C226.070801,83.792465 228.529282,85.459473 230.987762,87.126480 
	C230.987762,87.126488 231.035660,87.569664 231.117584,88.130630 
	C231.854919,90.130737 232.510330,91.569885 233.094269,93.404190 
	C233.333679,95.234680 233.644547,96.669998 233.817413,98.461395 
	C233.698700,102.314598 233.721146,105.811714 233.736603,109.308853 
	C233.765045,115.743393 233.903427,122.180115 233.781738,128.611862 
	C233.671219,134.452820 233.033279,140.289932 233.070633,146.125900 
	C233.112473,152.660202 233.881866,159.190323 233.910034,165.724091 
	C233.937714,172.152328 233.433258,178.582840 233.087799,185.435318 
	C231.798370,194.764511 230.515259,203.625763 225.310364,211.356384 
	C223.000061,214.787796 221.015732,218.438675 218.883408,221.989929 
	C216.667969,224.084808 214.452530,226.179688 211.760254,228.635208 
	C207.707138,232.052063 204.130844,235.108292 200.554535,238.164520 
	C200.554550,238.164520 200.272934,238.228409 200.027100,238.516647 
	C199.497330,239.191910 199.213364,239.578918 198.929413,239.965942 
	C198.929428,239.965942 198.991791,239.987839 198.627686,239.998444 
	C189.928391,246.140930 184.318390,253.668610 184.973572,264.712372 
	C185.482773,273.295166 185.620514,281.899292 186.009979,290.490051 
	C186.637894,304.340820 187.446671,318.184204 187.973846,332.038513 
	C188.452484,344.616730 188.627151,357.206238 189.011063,369.788483 
	C189.079712,372.038086 189.828156,374.291504 189.721893,376.517334 
	C189.409256,383.066040 188.190186,389.161194 182.222778,393.417603 
	C174.109543,399.204559 164.974579,398.530670 156.460190,396.467438 
	C148.903900,394.636353 142.225937,388.416534 142.897095,378.457245 
	C143.709824,366.396851 143.655472,354.278992 144.024872,342.187469 
	C144.307800,332.926178 144.718628,323.668701 144.978439,314.406891 
	C145.359695,300.815948 145.696106,287.223480 145.971222,273.630035 
	C146.085693,267.973846 147.011124,262.068298 145.723038,256.720459 
	C144.287018,250.758331 141.612946,244.661255 135.032639,241.932648 
	C135.032639,241.932648 135.002930,241.990463 134.914856,241.661118 
	C132.580231,239.534424 130.333694,237.737076 128.087173,235.939728 
	C127.590858,235.325699 127.094551,234.711655 126.206047,233.697113 
	C125.220642,233.171219 124.627426,233.045853 124.034218,232.920471 
	C124.034218,232.920471 124.018829,232.986465 123.972504,232.721298 
	C123.621124,232.263260 123.316071,232.070389 123.011017,231.877518 
	C122.558212,231.307541 122.105408,230.737564 121.312653,229.833588 
	C120.589966,229.171936 120.207237,228.844330 119.824509,228.516724 
	C119.824509,228.516724 119.668037,228.185013 119.470612,228.032593 
	C119.273186,227.880173 118.891220,227.681473 118.891220,227.681473 
	C118.891220,227.681473 118.815086,227.332413 118.505302,227.053192 
	C117.810265,226.486069 117.425011,226.198151 117.039749,225.910233 
	C117.039749,225.910233 117.030945,225.979645 116.980484,225.715179 
	C116.624870,225.258133 116.319717,225.065567 116.014572,224.872986 
z"/>
<path fill="#000000" opacity="1.000000" stroke="none" 
	d="
M346.016968,392.882751 
	C346.010651,392.539520 345.861206,392.278107 345.293823,391.669739 
	C343.515594,387.163300 340.845856,383.114563 340.743774,379.002106 
	C340.507874,369.493164 341.551575,359.955109 342.010040,350.425659 
	C342.545502,339.294434 342.377228,328.086884 343.648560,317.043060 
	C345.766632,298.644073 339.980560,289.658325 323.825745,281.522064 
	C323.825745,281.522064 323.738831,281.242523 323.442810,280.979614 
	C322.374725,280.317230 321.602661,279.917725 320.830566,279.518250 
	C320.830566,279.518250 320.737885,279.236603 320.440613,278.975281 
	C319.376190,278.318329 318.609070,277.922699 317.841949,277.527100 
	C317.841949,277.527100 317.744171,277.235382 317.406647,276.930267 
	C311.653625,273.530121 308.899353,268.832336 309.030182,262.627045 
	C309.267242,251.383209 309.532532,240.137268 310.012360,228.901871 
	C310.929230,207.432480 311.313171,185.905502 313.301971,164.531174 
	C314.321045,153.579208 317.726440,142.707642 321.188232,132.172668 
	C323.634583,124.728012 327.986664,117.909576 331.487946,110.811577 
	C331.487946,110.811577 331.756561,110.731438 332.031128,110.425583 
	C332.561615,109.424026 332.817505,108.728325 333.073425,108.032623 
	C333.073395,108.032616 333.010498,108.004143 333.340515,107.913605 
	C334.804810,106.227646 335.939117,104.632217 337.073395,103.036789 
	C337.073395,103.036789 337.010590,103.004807 337.340637,102.915649 
	C341.803497,98.898239 345.936340,94.969986 350.069153,91.041733 
	C350.069153,91.041733 350.005554,91.011215 350.393219,91.006104 
	C360.074799,85.667831 369.803650,82.375267 381.002106,84.553780 
	C381.002106,87.590538 380.998505,90.566643 381.002655,93.542740 
	C381.055634,131.367767 381.109711,169.192780 381.093994,207.480896 
	C381.013702,216.335281 380.945312,224.727188 381.034271,233.117432 
	C381.055389,235.111511 381.603241,237.100006 381.939423,239.483383 
	C381.982147,242.017883 381.965637,244.160675 382.010925,246.302170 
	C382.336792,261.705078 382.728455,277.106812 382.996887,292.510681 
	C383.378265,314.394623 383.828400,336.279297 383.932617,358.165161 
	C383.979889,368.101257 383.267365,378.041016 382.899536,387.979095 
	C382.899536,387.979095 382.968719,387.988708 382.652039,388.071411 
	C381.867096,389.091309 381.398804,390.028534 380.930542,390.965759 
	C380.930542,390.965759 380.991730,390.989258 380.727356,391.034363 
	C380.284729,391.380737 380.106476,391.682068 379.928223,391.983398 
	C379.928223,391.983398 379.991943,391.993317 379.610657,391.990051 
	C372.912140,396.674011 366.059662,399.272430 358.138397,396.960846 
	C354.049438,395.767639 350.054413,394.252441 346.016968,392.882751 
z"/>
<path fill="#000000" opacity="1.000000" stroke="none" 
	d="
M110.887299,470.956177 
	C110.887299,470.956177 110.505081,471.002869 110.162521,470.667053 
	C108.909416,470.199310 107.998871,470.067322 107.088333,469.935333 
	C101.046371,467.363525 95.863129,464.108307 94.959915,456.710602 
	C93.716240,446.524323 101.974976,439.871307 111.055939,439.977753 
	C165.846481,439.983704 219.763184,440.009827 273.679871,439.987244 
	C310.452454,439.971832 347.225006,439.888397 383.997589,439.835388 
	C394.045319,439.452454 402.721924,452.660675 396.138550,462.861511 
	C395.949829,463.649841 395.901917,463.820496 395.854004,463.991119 
	C394.964294,464.767975 394.074554,465.544800 392.697205,466.653778 
	C388.474457,468.043701 384.739319,469.101501 380.539124,470.085754 
	C370.522034,470.007324 360.969635,469.962006 351.418274,470.039398 
	C349.916016,470.051575 348.418274,470.619781 346.474152,470.961304 
	C329.110107,470.995636 312.190369,471.000641 295.270599,471.002991 
	C284.127197,471.004547 272.982788,471.089172 261.840790,470.963593 
	C256.559875,470.904114 251.283508,470.439819 245.539062,470.091705 
	C234.050049,470.071991 223.027039,470.119476 211.656555,470.190643 
	C204.566711,470.453064 197.824326,470.691833 190.856522,470.555908 
	C164.406082,470.172821 138.181091,470.164398 111.695419,470.126068 
	C111.252274,470.382843 111.069786,470.669495 110.887299,470.956177 
z"/>
<path fill="#000000" opacity="1.000000" stroke="none" 
	d="
M338.000000,506.978485 
	C350.657501,506.978882 362.815918,506.893463 374.971954,507.026489 
	C379.219635,507.072937 383.531708,507.290558 387.688751,508.086212 
	C393.307861,509.161621 399.275543,516.424561 398.970581,521.476135 
	C398.550629,528.432434 392.816345,534.829529 386.460693,534.931824 
	C366.597198,535.251648 346.728302,535.216309 326.862427,535.415039 
	C317.765930,535.505981 308.672607,535.941345 299.576263,536.008911 
	C285.543121,536.113037 271.508575,536.035583 257.474640,536.034546 
	C249.739120,536.033997 242.001495,536.146545 234.268555,536.004639 
	C222.255096,535.784302 210.245621,535.185730 198.232925,535.139038 
	C189.608261,535.105530 180.983292,535.851440 172.354340,535.985657 
	C165.948059,536.085327 159.535049,535.646667 153.125320,535.655273 
	C145.177444,535.666016 137.227341,536.078430 129.282852,535.971558 
	C121.034531,535.860596 112.757149,535.688477 104.557487,534.882141 
	C97.974220,534.234619 93.617805,527.824524 94.001404,520.679077 
	C94.339920,514.373413 100.132973,508.323273 106.432869,508.023834 
	C116.001114,507.569061 125.578674,507.037842 135.152908,507.025696 
	C202.601852,506.940216 270.050934,506.979248 338.000000,506.978485 
z"/>
<path fill="#FFB311" opacity="1.000000" stroke="none" 
	d="
M135.078491,242.278580 
	C141.612946,244.661255 144.287018,250.758331 145.723038,256.720459 
	C147.011124,262.068298 146.085693,267.973846 145.971222,273.630035 
	C145.696106,287.223480 145.359695,300.815948 144.978439,314.406891 
	C144.718628,323.668701 144.307800,332.926178 144.024872,342.187469 
	C143.655472,354.278992 143.709824,366.396851 142.897095,378.457245 
	C142.225937,388.416534 148.903900,394.636353 156.460190,396.467438 
	C164.974579,398.530670 174.109543,399.204559 182.222778,393.417603 
	C188.190186,389.161194 189.409256,383.066040 189.721893,376.517334 
	C189.828156,374.291504 189.079712,372.038086 189.011063,369.788483 
	C188.627151,357.206238 188.452484,344.616730 187.973846,332.038513 
	C187.446671,318.184204 186.637894,304.340820 186.009979,290.490051 
	C185.620514,281.899292 185.482773,273.295166 184.973572,264.712372 
	C184.318390,253.668610 189.928391,246.140930 198.613831,239.968445 
	C197.409943,242.014801 196.121307,244.384247 194.254715,246.138824 
	C187.009323,252.949402 185.681854,261.597107 186.257706,270.838318 
	C186.701355,277.958374 187.664139,285.052063 187.944824,292.175262 
	C189.063980,320.577850 189.622513,349.008331 191.174164,377.385559 
	C191.967026,391.886047 181.054138,399.557556 169.182556,399.062775 
	C162.228882,398.772949 155.198059,399.645416 149.027451,395.082977 
	C143.948151,391.327454 140.976593,386.370697 141.098358,380.254059 
	C141.465515,361.809967 142.314896,343.375916 142.872223,324.934814 
	C143.068451,318.442047 142.769073,311.932098 143.037750,305.444153 
	C143.559998,292.832458 144.240280,280.225647 145.016296,267.626740 
	C145.557419,258.841461 143.394150,251.186417 136.686478,245.119446 
	C135.986328,244.486191 135.636627,243.465469 135.078491,242.278580 
z"/>
<path fill="#FFB313" opacity="1.000000" stroke="none" 
	d="
M383.219788,387.790222 
	C383.267365,378.041016 383.979889,368.101257 383.932617,358.165161 
	C383.828400,336.279297 383.378265,314.394623 382.996887,292.510681 
	C382.728455,277.106812 382.336792,261.705078 382.010925,246.302170 
	C381.965637,244.160675 381.982147,242.017883 381.964844,239.011307 
	C381.969208,234.008942 382.083557,229.867920 381.963684,225.733688 
	C381.782745,219.492569 381.438416,213.256195 381.163513,207.017807 
	C381.109711,169.192780 381.055634,131.367767 381.002655,93.542740 
	C380.998505,90.566643 381.002106,87.590538 381.002106,84.553780 
	C369.803650,82.375267 360.074799,85.667831 350.408813,91.037743 
	C351.596436,89.494629 352.884583,87.376213 354.763275,86.428970 
	C362.518555,82.518753 370.879730,81.177269 379.477997,82.169693 
	C380.765656,82.318306 382.128784,84.355682 382.873260,85.816757 
	C383.413574,86.877129 382.995575,88.428520 382.995819,89.760971 
	C383.004181,134.232788 382.915466,178.704926 383.064056,223.176270 
	C383.127411,242.136063 383.670502,261.094513 384.024628,280.053009 
	C384.338348,296.847565 384.690613,313.641357 385.028900,330.435455 
	C385.353271,346.538574 385.812958,362.641022 385.888885,378.745270 
	C385.902802,381.693542 384.362762,384.649139 383.219788,387.790222 
z"/>
<path fill="#FFB313" opacity="1.000000" stroke="none" 
	d="
M331.154663,110.766205 
	C327.986664,117.909576 323.634583,124.728012 321.188232,132.172668 
	C317.726440,142.707642 314.321045,153.579208 313.301971,164.531174 
	C311.313171,185.905502 310.929230,207.432480 310.012360,228.901871 
	C309.532532,240.137268 309.267242,251.383209 309.030182,262.627045 
	C308.899353,268.832336 311.653625,273.530121 317.258972,276.887146 
	C312.997681,277.149719 308.998627,274.223267 308.117615,268.765900 
	C307.147278,262.755157 307.141602,256.551575 307.140900,250.431946 
	C307.140259,244.471344 307.806793,238.513885 307.953583,232.549454 
	C308.370331,215.613373 308.189331,198.647293 309.141388,181.743591 
	C310.294586,161.268356 314.280029,141.258224 322.915985,122.487183 
	C324.865540,118.249649 328.150940,114.626686 331.154663,110.766205 
z"/>
<path fill="#FDA205" opacity="1.000000" stroke="none" 
	d="
M246.005081,470.158905 
	C251.283508,470.439819 256.559875,470.904114 261.840790,470.963593 
	C272.982788,471.089172 284.127197,471.004547 295.270599,471.002991 
	C312.190369,471.000641 329.110107,470.995636 346.946289,470.983887 
	C354.327759,470.985413 360.795013,471.101624 367.257141,470.967926 
	C371.843109,470.873047 376.422089,470.440857 381.004181,470.159241 
	C384.739319,469.101501 388.474457,468.043701 392.586487,466.931763 
	C389.576233,468.554810 386.275208,470.455322 382.763397,471.809021 
	C381.159943,472.427124 379.140839,471.991913 377.310242,471.992004 
	C291.238892,471.996979 205.167557,472.001038 119.096214,471.976349 
	C116.956375,471.975739 114.816628,471.651398 112.336075,471.241394 
	C111.995300,471.004761 111.981010,471.019257 112.451469,471.017822 
	C138.975266,470.987793 165.028610,470.959198 191.081955,470.930603 
	C197.824326,470.691833 204.566711,470.453064 212.006012,470.411804 
	C219.754166,470.745239 226.806046,471.005859 233.856354,470.969147 
	C237.907227,470.948029 241.955582,470.445007 246.005081,470.158905 
z"/>
<path fill="#FFA90A" opacity="1.000000" stroke="none" 
	d="
M111.011223,439.043274 
	C110.532448,438.944824 110.053680,438.846344 109.574905,438.747894 
	C109.558517,438.568268 109.542137,438.388611 109.525749,438.208984 
	C110.545967,438.136780 111.566177,438.001465 112.586395,438.001373 
	C201.731461,437.991821 290.876526,437.990631 380.021576,438.013031 
	C381.311157,438.013367 382.600647,438.316681 383.473389,438.744568 
	C292.374817,439.021454 201.693024,439.032349 111.011223,439.043274 
z"/>
<path fill="#FFC929" opacity="1.000000" stroke="none" 
	d="
M111.008835,439.240051 
	C201.693024,439.032349 292.374817,439.021454 383.524261,439.023865 
	C383.991913,439.037170 383.995483,439.436279 383.996521,439.635834 
	C347.225006,439.888397 310.452454,439.971832 273.679871,439.987244 
	C219.763184,440.009827 165.846481,439.983704 111.466522,439.904358 
	C111.003265,439.830383 111.006454,439.436829 111.008835,439.240051 
z"/>
<path fill="#FEAF0E" opacity="1.000000" stroke="none" 
	d="
M124.166962,92.023376 
	C123.776665,90.954491 123.386375,89.885605 122.992546,88.186615 
	C122.992203,87.371468 122.995384,87.186432 122.999512,87.000473 
	C123.000473,86.999535 123.007507,86.992447 123.007507,86.992447 
	C127.701813,89.483315 126.684692,94.403419 126.763710,98.081421 
	C127.178764,117.400902 126.951912,136.734177 126.946518,156.062668 
	C126.945366,160.170975 126.988815,164.280106 126.923714,168.387451 
	C126.753738,179.112854 137.282684,182.206665 144.679153,178.484726 
	C145.567413,178.037766 146.456589,177.592606 147.713287,177.090408 
	C144.834595,183.746078 135.349091,183.255386 129.987915,179.640991 
	C125.051224,176.312759 125.157356,171.158707 124.293182,166.274765 
	C124.141769,165.419022 124.103760,164.543213 124.293312,163.016556 
	C124.703499,160.866577 124.833755,159.376709 124.964005,157.886856 
	C124.881363,154.510208 124.798729,151.133575 124.833954,147.096085 
	C124.688606,145.628021 124.425385,144.820786 124.162170,144.013565 
	C124.435913,138.809875 124.817970,133.608994 124.953110,128.401718 
	C125.089935,123.129539 124.980637,117.851021 124.982628,112.575287 
	C124.984718,107.054092 124.990952,101.532898 124.983978,95.232262 
	C124.704041,93.643005 124.435501,92.833191 124.166962,92.023376 
z"/>
<path fill="#FFB313" opacity="1.000000" stroke="none" 
	d="
M323.772858,281.857635 
	C339.980560,289.658325 345.766632,298.644073 343.648560,317.043060 
	C342.377228,328.086884 342.545502,339.294434 342.010040,350.425659 
	C341.551575,359.955109 340.507874,369.493164 340.743774,379.002106 
	C340.845856,383.114563 343.515594,387.163300 345.066956,391.611755 
	C340.301758,390.107605 339.061829,385.685699 339.136841,381.503296 
	C339.401184,366.759338 340.267120,352.026733 340.851074,337.287689 
	C341.271210,326.682648 341.904297,316.073425 341.876434,305.467560 
	C341.857025,298.068237 337.260376,292.951294 331.584808,288.698578 
	C328.865234,286.660828 326.335632,284.369629 323.772858,281.857635 
z"/>
<path fill="#FEAF0E" opacity="1.000000" stroke="none" 
	d="
M99.132278,86.786591 
	C98.646378,88.992020 97.815125,91.155647 96.704254,94.038437 
	C96.288528,95.573265 96.034172,96.388832 96.033493,97.204605 
	C96.012558,122.517845 96.004478,147.831116 96.051308,173.144287 
	C96.053673,174.425751 96.562576,175.706268 96.835640,176.987228 
	C98.533638,190.008575 100.805000,202.857986 108.043381,214.598724 
	C105.779106,211.648468 102.771873,208.611771 101.303757,204.956848 
	C96.992775,194.224518 94.945679,182.956116 94.969170,171.330521 
	C95.019661,146.341415 94.853355,121.350471 95.160477,96.365013 
	C95.200073,93.143906 97.522156,89.950844 99.132278,86.786591 
z"/>
<path fill="#FFAD0C" opacity="1.000000" stroke="none" 
	d="
M233.162308,185.012360 
	C233.433258,178.582840 233.937714,172.152328 233.910034,165.724091 
	C233.881866,159.190323 233.112473,152.660202 233.070633,146.125900 
	C233.033279,140.289932 233.671219,134.452820 233.781738,128.611862 
	C233.903427,122.180115 233.765045,115.743393 233.736603,109.308853 
	C233.721146,105.811714 233.698700,102.314598 233.832596,98.035751 
	C233.992218,95.834297 233.998672,94.414566 234.002548,92.997421 
	C233.999985,93.000015 233.992615,93.007423 233.992615,93.007423 
	C234.330887,94.759125 234.960938,96.510338 234.963913,98.262619 
	C235.013733,127.516365 234.985092,156.770248 234.762085,186.320602 
	C234.087601,186.082199 233.624954,185.547287 233.162308,185.012360 
z"/>
<path fill="#FDA205" opacity="1.000000" stroke="none" 
	d="
M204.828461,98.987640 
	C204.955780,102.086761 205.083099,105.185875 205.113159,109.083618 
	C205.005005,117.005058 204.892212,124.129715 205.021622,131.249969 
	C205.098846,135.499832 205.556000,139.742798 205.842346,143.988861 
	C205.562469,153.182190 205.392563,162.381317 204.907272,171.563782 
	C204.813400,173.339935 203.486938,175.050934 202.382538,176.937363 
	C205.844360,161.822922 203.403656,146.297134 203.923874,130.900391 
	C204.272186,120.591621 203.993134,110.261650 204.206711,99.468590 
	C204.418610,98.996010 204.828445,98.987640 204.828461,98.987640 
z"/>
<path fill="#FEAF0E" opacity="1.000000" stroke="none" 
	d="
M182.910568,177.703735 
	C181.640335,175.316467 179.215500,172.559082 179.178833,169.770309 
	C178.873367,146.539642 179.022644,123.303154 178.980438,100.068520 
	C178.977249,98.314178 178.556931,96.560593 178.242554,94.392868 
	C178.771622,94.311722 179.915909,94.629623 179.925690,94.979248 
	C180.051254,99.469849 180.018616,103.964981 180.018707,108.458961 
	C180.019043,124.882294 179.752380,141.311966 180.145432,157.725845 
	C180.302261,164.274857 181.913651,170.789032 182.910568,177.703735 
z"/>
<path fill="#FEAF0E" opacity="1.000000" stroke="none" 
	d="
M151.048233,95.083199 
	C151.262024,113.490700 151.558182,131.897812 151.645844,150.305923 
	C151.677414,156.938004 151.207870,163.572479 150.891937,170.631714 
	C150.540390,169.280380 150.027115,167.503693 150.023224,165.725906 
	C149.971359,142.107391 149.962326,118.488609 150.047928,94.870285 
	C150.054672,93.010971 150.844177,91.154503 151.634552,89.147964 
	C151.999237,88.999229 152.001709,89.001709 152.006760,89.278069 
	C152.021286,89.738449 152.030777,89.922478 152.040253,90.106514 
	C152.019974,90.536064 151.999695,90.965607 151.720642,91.974274 
	C151.323975,93.396660 151.186111,94.239929 151.048233,95.083199 
z"/>
<path fill="#FFB311" opacity="1.000000" stroke="none" 
	d="
M233.087799,185.435318 
	C233.624954,185.547287 234.087601,186.082199 234.751434,186.786377 
	C233.363724,198.039169 230.345215,208.618759 223.706009,217.843155 
	C222.598557,219.381836 220.971741,220.546707 219.234161,221.937134 
	C221.015732,218.438675 223.000061,214.787796 225.310364,211.356384 
	C230.515259,203.625763 231.798370,194.764511 233.087799,185.435318 
z"/>
<path fill="#FFAD0C" opacity="1.000000" stroke="none" 
	d="
M204.901917,98.578156 
	C204.828445,98.987640 204.418610,98.996010 204.213806,99.000252 
	C204.772552,94.494179 204.593643,89.524330 206.517075,85.579544 
	C209.521072,79.418610 216.027512,79.585533 221.903183,80.094833 
	C225.895111,80.440857 229.909790,81.458435 230.977478,86.748955 
	C228.529282,85.459473 226.070801,83.792465 222.966278,81.784958 
	C219.883972,81.575394 217.447723,81.706322 215.011459,81.837250 
	C206.471375,84.088760 206.143967,91.387184 204.901917,98.578156 
z"/>
<path fill="#FFB313" opacity="1.000000" stroke="none" 
	d="
M346.077148,393.237732 
	C350.054413,394.252441 354.049438,395.767639 358.138397,396.960846 
	C366.059662,399.272430 372.912140,396.674011 379.596497,391.961060 
	C377.536621,393.936127 375.406769,396.875946 372.625183,397.756165 
	C365.193146,400.107941 357.515686,399.823578 350.161713,396.968872 
	C348.616272,396.368988 347.468384,394.744843 346.077148,393.237732 
z"/>
<path fill="#FEAF0E" opacity="1.000000" stroke="none" 
	d="
M122.160858,87.008614 
	C118.311226,80.608948 105.945190,79.961220 100.105637,86.267838 
	C100.678757,84.923744 101.134094,82.786980 102.428856,81.952209 
	C109.538521,77.368385 119.865402,79.673065 122.989487,86.627701 
	C123.007507,86.992447 123.000473,86.999535 122.790131,87.000786 
	C122.579781,87.002037 122.160858,87.008614 122.160858,87.008614 
z"/>
<path fill="#FEAF0E" opacity="1.000000" stroke="none" 
	d="
M161.987381,81.835419 
	C160.903305,82.227425 159.819244,82.619431 158.380005,83.065628 
	C160.027740,77.508263 164.769257,80.262360 168.210510,80.189804 
	C173.523560,80.077774 177.169296,83.987579 177.955933,89.699203 
	C177.627426,89.636650 177.310196,89.179207 176.815811,88.202271 
	C176.369644,87.462883 176.100616,87.242996 175.831604,87.023117 
	C173.757080,85.388214 171.682556,83.753311 168.971100,81.783890 
	C166.218567,81.578056 164.102966,81.706741 161.987381,81.835419 
z"/>
<path fill="#FFB313" opacity="1.000000" stroke="none" 
	d="
M349.701904,91.042091 
	C345.936340,94.969986 341.803497,98.898239 337.356201,102.947250 
	C338.638153,96.502686 343.891174,93.675209 349.701904,91.042091 
z"/>
<path fill="#FFB311" opacity="1.000000" stroke="none" 
	d="
M200.895569,238.298431 
	C204.130844,235.108292 207.707138,232.052063 211.634949,228.937622 
	C210.019577,233.882645 206.112320,236.702423 200.895569,238.298431 
z"/>
<path fill="#FFB311" opacity="1.000000" stroke="none" 
	d="
M127.910332,236.162720 
	C130.333694,237.737076 132.580231,239.534424 134.944427,241.647644 
	C132.619217,240.104248 130.176346,238.244965 127.910332,236.162720 
z"/>
<path fill="#FFB313" opacity="1.000000" stroke="none" 
	d="
M336.720093,103.088203 
	C335.939117,104.632217 334.804810,106.227646 333.356079,107.944382 
	C334.150055,106.423668 335.258423,104.781639 336.720093,103.088203 
z"/>
<path fill="#FFAD0C" opacity="1.000000" stroke="none" 
	d="
M233.165741,93.009026 
	C232.510330,91.569885 231.854919,90.130737 231.183685,88.343483 
	C232.111588,89.406403 233.055328,90.817429 233.995850,92.617943 
	C233.992615,93.007423 233.999985,93.000015 233.792664,93.001335 
	C233.585358,93.002655 233.165741,93.009026 233.165741,93.009026 
z"/>
<path fill="#FEAF0E" opacity="1.000000" stroke="none" 
	d="
M111.050461,219.277374 
	C112.032692,220.039505 113.019974,221.165695 114.042343,222.629501 
	C113.070122,221.858566 112.062813,220.750015 111.050461,219.277374 
z"/>
<path fill="#FEAF0E" opacity="1.000000" stroke="none" 
	d="
M108.041000,215.288422 
	C109.027328,216.045563 110.015305,217.167114 111.047821,218.623291 
	C110.075790,217.856216 109.059219,216.754532 108.041000,215.288422 
z"/>
<path fill="#FDA205" opacity="1.000000" stroke="none" 
	d="
M200.736191,178.069000 
	C199.991043,179.022964 198.898376,180.017670 197.448944,181.047989 
	C198.191010,180.092316 199.289841,179.101013 200.736191,178.069000 
z"/>
<path fill="#FDA205" opacity="1.000000" stroke="none" 
	d="
M196.771729,181.033447 
	C195.956207,181.386978 194.826553,181.685730 193.319305,181.902786 
	C194.113663,181.540268 195.285614,181.259460 196.771729,181.033447 
z"/>
<path fill="#FDA205" opacity="1.000000" stroke="none" 
	d="
M190.832184,181.794754 
	C189.671021,181.977020 188.458542,181.862457 187.079605,181.418991 
	C188.202377,181.226044 189.491623,181.361984 190.832184,181.794754 
z"/>
<path fill="#FDA205" opacity="1.000000" stroke="none" 
	d="
M106.871567,470.009827 
	C107.998871,470.067322 108.909416,470.199310 109.971024,470.647156 
	C108.917976,470.915466 107.713478,470.874512 106.510803,470.802856 
	C106.443222,470.798828 106.325432,470.529053 106.349579,470.406281 
	C106.373680,470.283722 106.546928,470.190460 106.871567,470.009827 
z"/>
<path fill="#FEAF0E" opacity="1.000000" stroke="none" 
	d="
M153.792908,86.085434 
	C153.789948,86.799995 153.453033,87.595314 152.767975,88.695854 
	C152.419846,89.001076 152.001709,89.001709 152.001709,89.001709 
	C152.001709,89.001709 151.999237,88.999229 151.994904,88.994888 
	C152.480042,88.049095 152.969513,87.107643 153.792908,86.085434 
z"/>
<path fill="#FFB313" opacity="1.000000" stroke="none" 
	d="
M381.260437,390.878784 
	C381.398804,390.028534 381.867096,389.091309 382.645599,388.037048 
	C382.500671,388.877289 382.045502,389.834534 381.260437,390.878784 
z"/>
<path fill="#FFB313" opacity="1.000000" stroke="none" 
	d="
M320.805176,279.856689 
	C321.602661,279.917725 322.374725,280.317230 323.301697,280.940826 
	C322.564301,280.841675 321.672058,280.518402 320.805176,279.856689 
z"/>
<path fill="#FFB313" opacity="1.000000" stroke="none" 
	d="
M317.814880,277.863464 
	C318.609070,277.922699 319.376190,278.318329 320.297668,278.935852 
	C319.563934,278.838440 318.675873,278.519165 317.814880,277.863464 
z"/>
<path fill="#FEAF0E" opacity="1.000000" stroke="none" 
	d="
M124.077118,233.188873 
	C124.627426,233.045853 125.220642,233.171219 125.927185,233.582764 
	C125.400360,233.731705 124.760193,233.594482 124.077118,233.188873 
z"/>
<path fill="#FFB313" opacity="1.000000" stroke="none" 
	d="
M332.756714,108.133011 
	C332.817505,108.728325 332.561615,109.424026 332.064880,110.289536 
	C332.029388,109.717361 332.234711,108.975380 332.756714,108.133011 
z"/>
<path fill="#FDA205" opacity="1.000000" stroke="none" 
	d="
M186.858276,180.790710 
	C186.336456,180.965103 185.762329,180.841034 185.088181,180.178436 
	C184.999130,179.464615 185.010117,179.289291 185.021103,179.113953 
	C185.616058,179.573395 186.211014,180.032822 186.858276,180.790710 
z"/>
<path fill="#FEAF0E" opacity="1.000000" stroke="none" 
	d="
M184.815018,178.885818 
	C185.010117,179.289291 184.999130,179.464615 184.971512,179.903076 
	C184.341156,179.650314 183.727432,179.134415 183.013214,178.330505 
	C183.478104,178.247559 184.043518,178.452621 184.815018,178.885818 
z"/>
<path fill="#FFB311" opacity="1.000000" stroke="none" 
	d="
M199.199356,239.897949 
	C199.213364,239.578918 199.497330,239.191910 199.983276,238.654221 
	C199.946625,238.945694 199.707962,239.387833 199.199356,239.897949 
z"/>
<path fill="#FEAF0E" opacity="1.000000" stroke="none" 
	d="
M117.110474,226.178314 
	C117.425011,226.198151 117.810265,226.486069 118.343658,226.977173 
	C118.054924,226.935699 117.618057,226.691040 117.110474,226.178314 
z"/>
<path fill="#FEAF0E" opacity="1.000000" stroke="none" 
	d="
M119.826797,228.794876 
	C120.207237,228.844330 120.589966,229.171936 121.049973,229.741425 
	C120.694527,229.679871 120.261810,229.376450 119.826797,228.794876 
z"/>
<path fill="#FEAF0E" opacity="1.000000" stroke="none" 
	d="
M149.932327,173.988312 
	C150.056076,174.093384 149.984833,174.562531 149.907074,174.786896 
	C149.822403,174.635239 149.815491,174.259247 149.932327,173.988312 
z"/>
<path fill="#FDA205" opacity="1.000000" stroke="none" 
	d="
M201.867432,177.137512 
	C201.911346,177.318100 201.725952,177.625885 201.273682,178.011932 
	C201.217239,177.815033 201.427673,177.539856 201.867432,177.137512 
z"/>
<path fill="#FEAF0E" opacity="1.000000" stroke="none" 
	d="
M148.894196,176.156433 
	C148.927658,176.328979 148.733932,176.629959 148.275803,177.009827 
	C148.229935,176.820801 148.448471,176.552841 148.894196,176.156433 
z"/>
<path fill="#FEAF0E" opacity="1.000000" stroke="none" 
	d="
M114.150383,223.138062 
	C114.318794,223.098816 114.626839,223.282486 115.029587,223.726868 
	C114.846199,223.778702 114.568108,223.569855 114.150383,223.138062 
z"/>
<path fill="#FEAF0E" opacity="1.000000" stroke="none" 
	d="
M116.148430,225.099899 
	C116.319717,225.065567 116.624870,225.258133 117.015465,225.715271 
	C116.828033,225.762146 116.555161,225.544479 116.148430,225.099899 
z"/>
<path fill="#FEAF0E" opacity="1.000000" stroke="none" 
	d="
M118.866669,227.818176 
	C118.891220,227.681473 119.273186,227.880173 119.291817,227.991882 
	C119.310448,228.103592 119.037643,228.150070 119.037643,228.150070 
	C119.037643,228.150070 118.842117,227.954895 118.866669,227.818176 
z"/>
<path fill="#FDA205" opacity="1.000000" stroke="none" 
	d="
M111.166443,470.974457 
	C111.069786,470.669495 111.252274,470.382843 111.701492,470.341888 
	C111.968231,470.587616 111.981010,471.019257 111.981010,471.019257 
	C111.981010,471.019257 111.995300,471.004761 112.000191,470.999878 
	C111.818588,470.994232 111.632095,470.993500 111.166443,470.974457 
z"/>
<path fill="#FEAF0E" opacity="1.000000" stroke="none" 
	d="
M123.141647,232.105713 
	C123.316071,232.070389 123.621124,232.263260 124.006363,232.722488 
	C123.815132,232.770538 123.543716,232.552231 123.141647,232.105713 
z"/>
<path fill="#FDA205" opacity="1.000000" stroke="none" 
	d="
M396.011841,463.927246 
	C395.901917,463.820496 395.949829,463.649841 396.082001,463.226807 
	C396.234467,463.180420 396.327301,463.382812 396.358276,463.594299 
	C396.369812,463.673096 396.236786,463.773041 396.011841,463.927246 
z"/>
<path fill="#FEAF0E" opacity="1.000000" stroke="none" 
	d="
M178.253540,90.871964 
	C178.166611,91.002182 178.007050,90.532471 177.950943,90.290710 
	C178.248947,90.158241 178.397476,90.389168 178.253540,90.871964 
z"/>
<path fill="#FFB313" opacity="1.000000" stroke="none" 
	d="
M380.144653,391.850677 
	C380.106476,391.682068 380.284729,391.380737 380.723145,391.001831 
	C380.775879,391.188812 380.568481,391.453400 380.144653,391.850677 
z"/>
<path fill="#FFC225" opacity="1.000000" stroke="none" 
	d="
M96.904182,176.523407 
	C96.562576,175.706268 96.053673,174.425751 96.051308,173.144287 
	C96.004478,147.831116 96.012558,122.517845 96.033493,97.204605 
	C96.034172,96.388832 96.288528,95.573265 96.626129,94.403633 
	C96.875984,121.386307 96.924355,148.722946 96.904182,176.523407 
z"/>
<path fill="#FFC929" opacity="1.000000" stroke="none" 
	d="
M205.921844,143.643234 
	C205.556000,139.742798 205.098846,135.499832 205.021622,131.249969 
	C204.892212,124.129715 205.005005,117.005058 205.037643,109.411530 
	C205.380676,110.116371 205.944992,111.283760 205.984802,112.468781 
	C206.310501,122.161224 206.552704,131.856659 206.760040,141.552460 
	C206.772354,142.128510 206.266220,142.715637 205.921844,143.643234 
z"/>
<path fill="#FFC225" opacity="1.000000" stroke="none" 
	d="
M215.449081,81.908249 
	C217.447723,81.706322 219.883972,81.575394 222.639740,81.638397 
	C220.601715,81.881302 218.244217,81.930275 215.449081,81.908249 
z"/>
<path fill="#FFC225" opacity="1.000000" stroke="none" 
	d="
M162.420044,81.907654 
	C164.102966,81.706741 166.218567,81.578056 168.643677,81.637123 
	C166.919693,81.876541 164.886185,81.928215 162.420044,81.907654 
z"/>
<path fill="#FFC225" opacity="1.000000" stroke="none" 
	d="
M233.094269,93.404190 
	C233.165741,93.009026 233.585358,93.002655 233.795227,92.998741 
	C233.998672,94.414566 233.992218,95.834297 233.970596,97.679680 
	C233.644547,96.669998 233.333679,95.234680 233.094269,93.404190 
z"/>
<path fill="#FFC225" opacity="1.000000" stroke="none" 
	d="
M124.614365,158.072662 
	C124.833755,159.376709 124.703499,160.866577 124.364914,162.663879 
	C124.192627,161.400360 124.228683,159.829422 124.614365,158.072662 
z"/>
<path fill="#FFC225" opacity="1.000000" stroke="none" 
	d="
M151.369110,94.934952 
	C151.186111,94.239929 151.323975,93.396660 151.648529,92.288651 
	C151.786804,92.944839 151.738388,93.865776 151.369110,94.934952 
z"/>
<path fill="#FFC225" opacity="1.000000" stroke="none" 
	d="
M124.094620,92.372452 
	C124.435501,92.833191 124.704041,93.643005 124.967796,94.781624 
	C124.649437,94.314125 124.335861,93.517830 124.094620,92.372452 
z"/>
<path fill="#FFC225" opacity="1.000000" stroke="none" 
	d="
M124.088997,144.360199 
	C124.425385,144.820786 124.688606,145.628021 124.950691,146.762787 
	C124.638306,146.295822 124.327065,145.501328 124.088997,144.360199 
z"/>
<path fill="#FFC225" opacity="1.000000" stroke="none" 
	d="
M122.124603,87.273865 
	C122.160858,87.008614 122.579781,87.002037 122.789169,87.001724 
	C122.995384,87.186432 122.992203,87.371468 122.972977,87.833633 
	C122.667404,87.920204 122.377876,87.729660 122.124603,87.273865 
z"/>
<path fill="#FFC225" opacity="1.000000" stroke="none" 
	d="
M175.939697,87.275993 
	C176.100616,87.242996 176.369644,87.462883 176.795135,87.891129 
	C176.650330,87.909286 176.349060,87.719078 175.939697,87.275993 
z"/>
<path fill="#FFC225" opacity="1.000000" stroke="none" 
	d="
M152.006760,89.278069 
	C152.001709,89.001709 152.419846,89.001076 152.628784,89.003815 
	C152.741440,89.315857 152.645172,89.625175 152.294586,90.020500 
	C152.030777,89.922478 152.021286,89.738449 152.006760,89.278069 
z"/>
<path fill="#FFC225" opacity="1.000000" stroke="none" 
	d="
M381.093994,207.480896 
	C381.438416,213.256195 381.782745,219.492569 381.963684,225.733688 
	C382.083557,229.867920 381.969208,234.008942 381.934265,238.619003 
	C381.603241,237.100006 381.055389,235.111511 381.034271,233.117432 
	C380.945312,224.727188 381.013702,216.335281 381.093994,207.480896 
z"/>
<path fill="#FFC929" opacity="1.000000" stroke="none" 
	d="
M112.451469,471.017822 
	C111.981010,471.019257 111.968231,470.587616 111.962158,470.371796 
	C138.181091,470.164398 164.406082,470.172821 190.856522,470.555908 
	C165.028610,470.959198 138.975266,470.987793 112.451469,471.017822 
z"/>
<path fill="#FFC929" opacity="1.000000" stroke="none" 
	d="
M380.539124,470.085724 
	C376.422089,470.440857 371.843109,470.873047 367.257141,470.967926 
	C360.795013,471.101624 354.327759,470.985413 347.390564,470.953491 
	C348.418274,470.619781 349.916016,470.051575 351.418274,470.039398 
	C360.969635,469.962006 370.522034,470.007324 380.539124,470.085724 
z"/>
<path fill="#FFC929" opacity="1.000000" stroke="none" 
	d="
M245.539062,470.091705 
	C241.955582,470.445007 237.907227,470.948029 233.856354,470.969147 
	C226.806046,471.005859 219.754166,470.745239 212.353485,470.388123 
	C223.027039,470.119476 234.050049,470.071991 245.539062,470.091705 
z"/>
</svg>